# xmcd CD database file
#
# Track frame offsets:
#	150
#	36469
#	113801
#	133159
#	160955
#
# Disc length: 2486 seconds
#
# Revision: 1
# Processed by: cddbd v1.5.1PL0 Copyright (c) Steve Scherf et al.
# Submitted via: CDex 1.50
#
DISCID=4309b405
DTITLE=RoseWay - Dream and Reality
DYEAR=2004
DGENRE=Progressive Metal
TTITLE0=The Albatros
TTITLE1=Quinto
TTITLE2=I don't believe in love
TTITLE3=Dream and Reality
TTITLE4=The Apocalipse
EXTD=Prog-Metal demo from Terlizzi (BA) ITALY YEAR: 2004
EXTT0=
EXTT1=
EXTT2=
EXTT3=
EXTT4=
PLAYORDER=
